# xmcd
#
# Track frame offsets:
#	150
#	13436
#	25637
#	38672
#	52893
#	65144
#	79421
#	91572
#	105445
#	119930
#	133579
#	146182
#	159705
#	173061
#	184184
#	196169
#	210772
#	222582
#	235864
#	249013
#
# Disc length: 3520 seconds
# Revision: 3
# Processed by: cddbd v1.5.2PL0 Copyright (c) Steve Scherf et al.
# Submitted via: dBpowerAMP V12.0
#
DISCID=150dbe14
DTITLE=Various Artist - Blues Legends: 20 Classic Performances, Vol. 1
DYEAR=2003
DGENRE=Blues
TTITLE0=John Lee Hooker - I'm in the Mood
TTITLE1=Howlin' Wolf - How Many More Years
TTITLE2=Lightning Hopkins - Jake Head Boogie
TTITLE3=Lowell Fulson - Three O' Clock Blues
TTITLE4=Muddy Waters/Sunnyland Slim - I Can't Be Satisfied
TTITLE5=Muddy Waters/Sunnyland Slim - I Feel Like Going Home
TTITLE6=Big Bill Broonzy/Jazz Gillum - Key to the Highway
TTITLE7=Blind Lemon Jefferson - Matchbox Blues
TTITLE8=Son House - My Black Mama
TTITLE9=Tampa Red - Baby Take a Chance With Me
TTITLE10=Champion Jack Dupree - Gin Mill Sal
TTITLE11=Jimmy Witherspoon/Jay McShann and His Orchestra - Ain't Nobody's Business If I Do
TTITLE12=John Lee Hooker - Union Station Blues
TTITLE13=Lowell Fulson - Everyday I Have the Blues
TTITLE14=Howlin' Wolf - Howlin' Wolf Boogie
TTITLE15=John Lee Hooker - Do the Boogie
TTITLE16=Muddy Waters - Kind Hearted Woman
TTITLE17=Muddy Waters - Walking Blues
TTITLE18=T-Bone Walker - I Got the Blues
TTITLE19=Big Joe Turner - Chains of Love
EXTD=
EXTT0=
EXTT1=
EXTT2=
EXTT3=
EXTT4=
EXTT5=
EXTT6=
EXTT7=
EXTT8=
EXTT9=
EXTT10=
EXTT11=
EXTT12=
EXTT13=
EXTT14=
EXTT15=
EXTT16=
EXTT17=
EXTT18=
EXTT19=
PLAYORDER=
